# Blender 3.3.1
# www.blender.org
mtllib sitting.mtl
o Proxy
v -4.115701 44.093292 -3.635192
v -4.339401 43.907097 3.556708
v -1.817901 44.204098 1.639208
v 4.295800 43.897499 -3.642591
v 1.900600 44.538696 -1.671691
v 1.778700 44.210800 1.614608
v 1.716200 47.081604 -1.077392
v -1.701900 46.337204 2.150508
v -1.724200 47.077705 -1.086392
v 5.154200 58.096901 -1.135592
v 5.154300 54.899399 8.695806
v 5.154300 45.412502 5.563508
v -5.154300 58.100300 -1.118391
v -5.176899 47.984604 -4.423592
v -5.154200 45.409306 5.567408
v 5.154200 48.026203 -4.408092
v 5.173274 29.320843 4.096538
v 5.482036 22.072439 0.982635
v 2.762100 40.392197 -3.584093
v -2.529100 40.641895 -3.662793
v -5.481262 22.076485 0.976483
v -5.123580 29.285913 4.120585
v 4.212300 43.596001 -3.304491
v 2.792200 40.633698 -3.250492
v 4.136900 44.122398 3.556408
v 4.146200 43.775696 0.993609
v 2.784200 40.761295 3.746507
v 2.686100 40.902798 1.171607
v -4.043601 43.779396 -3.300392
v -4.227901 43.685097 0.993008
v -2.572300 40.891994 -3.316893
v -3.034300 40.499397 3.649907
v -2.773600 40.766396 1.110007
v 8.412102 34.068398 1.464005
v -8.115900 34.050499 -3.755394
v -8.451200 33.888004 -0.135594
v 5.620802 32.643394 -2.189195
v 5.541701 32.943001 1.550404
v 8.064201 26.578800 2.922403
v 7.587000 28.077599 4.955403
v -5.590101 32.768204 0.136205
v 8.488802 33.777798 -2.162495
v 10.271201 27.321100 2.942403
v -8.143900 26.276104 0.418504
v -5.244401 32.935799 -3.596494
v 9.808401 28.774700 4.913803
v -10.136900 28.202703 2.454804
v -7.922801 27.511703 2.661604
v -10.351301 27.004404 0.279504
v -0.007301 44.197803 1.626708
v -0.060701 44.513996 3.566908
v 0.039800 44.759098 -3.604892
v 0.010399 44.552902 -1.650493
v -1.866801 44.545197 -1.634892
v -0.000000 46.338409 2.150808
v -0.000000 47.081707 -1.071892
v -0.000000 54.878899 8.717505
v 0.000000 45.423702 5.571708
v -5.154200 54.911900 8.682607
v 0.000000 48.005508 -4.418093
v -0.000000 58.115799 -1.050592
v 1.702800 46.349705 2.134208
v 0.046500 40.896595 -3.648793
v 0.000484 24.493284 -2.860933
v -0.071400 40.990795 3.674007
v 0.154332 29.550240 4.492389
v 5.221050 28.535976 5.388926
v 5.506285 22.007471 2.715533
v 1.211629 28.756039 5.784310
v 1.344177 22.318542 1.186240
v -1.103769 28.745398 5.791587
v -5.202134 28.525591 5.396358
v -5.506265 22.007843 2.715611
v -1.321704 22.311049 1.199603
v 5.967085 24.777628 15.064285
v 5.894053 22.726589 12.057307
v 6.569575 14.273797 17.143188
v 6.374116 12.922811 14.016124
v 2.520195 24.800472 15.435152
v 3.357815 14.070721 17.319244
v 2.450306 22.530256 12.183978
v 3.370429 12.748646 14.251474
v -2.450193 22.531237 12.182683
v -2.520247 24.799911 15.435598
v -3.357716 14.070751 17.319336
v -5.967096 24.777569 15.064438
v -6.569475 14.273786 17.143187
v -5.894025 22.726891 12.057049
v -6.374117 12.922847 14.016214
v 10.048800 28.009499 6.579404
v 7.847700 27.336296 6.642103
v 8.642300 24.840698 3.257303
v 10.819000 25.590599 3.298603
v -10.906600 25.241501 0.355205
v -10.549700 27.235600 3.975305
v -8.726800 24.508398 0.468805
v -8.358600 26.565701 4.203605
v 9.833799 22.209099 9.447002
v 10.204599 21.044598 7.867503
v 8.833599 22.092999 9.336303
v 9.215700 20.892998 7.708703
v -10.732500 20.164198 4.369004
v -9.729700 20.036198 4.305804
v -9.552600 21.025496 6.101704
v -10.560700 21.124296 6.111804
v 6.653105 13.336143 17.545311
v 3.441346 13.133111 17.721460
v 3.449063 11.672391 14.333886
v 6.452850 11.846561 14.098532
v -3.370328 12.748636 14.251475
v -3.441346 13.133106 17.721458
v -6.653006 13.336136 17.545315
v -6.452850 11.846558 14.098528
v -3.449063 11.672387 14.333880
v 6.900902 10.561215 18.735294
v 4.669728 8.445773 14.266465
v 3.687404 10.380227 18.901875
v 6.043368 8.550875 14.259169
v -3.687304 10.380218 18.901875
v -6.043370 8.550911 14.259254
v -6.900802 10.561204 18.735298
v -4.669629 8.445803 14.266556
v -7.426998 12.726974 23.629711
v -7.277519 14.250946 22.968716
v 7.277719 14.250921 22.968626
v 7.427197 12.726949 23.629618
v -4.527151 12.550825 23.750473
v 4.527252 12.550834 23.750477
v -4.379022 14.057688 23.096909
v 4.379221 14.057704 23.096909
vn -0.2412 0.9699 0.0341
vn 0.1672 0.9850 0.0426
vn 0.9998 -0.0185 0.0021
vn -0.9998 -0.0203 -0.0031
vn -0.0040 -0.9697 -0.2442
vn 0.0053 -0.9698 -0.2437
vn 0.9971 0.0343 -0.0680
vn 0.9971 0.0356 -0.0673
vn 0.9304 -0.3655 0.0272
vn -0.9137 -0.4003 -0.0705
vn -0.9975 0.0363 -0.0612
vn -0.9975 0.0349 -0.0621
vn 0.9077 -0.4171 0.0463
vn 0.9476 -0.3175 0.0345
vn 0.9276 -0.3704 0.0483
vn -0.9387 -0.3408 -0.0526
vn -0.9026 -0.4254 -0.0666
vn -0.9244 -0.3751 -0.0685
vn -0.9244 -0.3751 -0.0686
vn 0.7415 0.6709 -0.0038
vn 0.9508 0.3099 -0.0020
vn -0.7405 0.6711 -0.0361
vn -0.9438 0.3225 -0.0729
vn -0.9496 0.3052 -0.0716
vn -0.8395 -0.5433 0.0066
vn -0.9298 -0.3679 0.0098
vn -0.9302 -0.3668 0.0135
vn -0.9420 -0.3349 0.0203
vn -0.9421 -0.3345 0.0255
vn 0.8380 -0.5428 0.0559
vn 0.9288 -0.3632 0.0735
vn 0.1462 -0.3413 -0.9285
vn 0.1439 -0.3499 -0.9257
vn 0.0620 -0.0660 -0.9959
vn 0.1443 -0.3931 -0.9081
vn 0.1429 -0.3908 -0.9093
vn 0.9393 -0.3323 0.0856
vn 0.9289 -0.3638 0.0697
vn 0.0273 0.0471 0.9985
vn -0.0809 0.2887 0.9540
vn -0.0783 0.2797 0.9569
vn -0.2161 0.7137 0.6663
vn -0.0342 0.1588 0.9867
vn -0.0341 0.1690 0.9850
vn -0.1174 -0.0446 0.9921
vn 0.1280 0.6258 0.7694
vn 0.1225 0.6318 0.7654
vn -0.0314 0.1680 0.9853
vn 0.0207 0.0219 -0.9995
vn -0.0334 -0.2325 -0.9720
vn -0.0355 -0.2236 -0.9740
vn -0.0350 -0.2775 -0.9601
vn 0.9576 0.2879 0.0087
vn 0.9451 0.3268 -0.0062
vn -0.9572 0.2820 -0.0645
vn -0.9576 0.2817 -0.0608
vn -0.0003 0.9904 0.1380
vn -0.0016 -0.1697 0.9855
vn 0.0035 0.1630 -0.9866
vn -0.0000 -0.2710 0.9626
vn 0.0002 0.2924 -0.9563
vn 0.0004 -0.9713 -0.2377
vn 0.0185 0.0159 -0.9997
vn 0.0350 0.0309 -0.9989
vn -0.0122 -0.1613 -0.9868
vn 0.0175 -0.0618 -0.9979
vn 0.0176 -0.0618 -0.9979
vn -0.5000 -0.2336 -0.8339
vn -0.4935 -0.2601 -0.8299
vn -0.5054 -0.1400 -0.8514
vn -0.0206 -0.0134 0.9997
vn -0.0175 0.0292 0.9994
vn -0.0748 -0.0022 0.9972
vn 0.0070 0.0773 0.9970
vn -0.0158 0.0466 0.9988
vn -0.0014 -0.0609 0.9981
vn -0.0309 0.0220 0.9993
vn -0.0723 -0.0905 0.9933
vn 0.0486 -0.0487 0.9976
vn 0.9953 0.0687 -0.0681
vn 0.9981 0.0525 -0.0314
vn 0.9982 0.0541 -0.0262
vn 0.0716 0.9306 0.3590
vn -0.0479 0.9405 0.3364
vn 0.0691 0.9270 0.3686
vn -0.9585 -0.1785 0.2223
vn -0.9942 -0.0620 0.0877
vn -0.9960 -0.0191 0.0875
vn -0.0372 -0.9846 -0.1707
vn -0.0736 -0.9971 0.0211
vn -0.0780 -0.9969 0.0112
vn 0.7408 -0.5606 0.3700
vn 0.8487 -0.4888 0.2021
vn -0.0850 0.9192 0.3844
vn -0.0822 0.9232 0.3755
vn -0.0869 0.9152 0.3935
vn -0.9943 0.0796 -0.0707
vn -0.9944 0.0780 -0.0715
vn -0.9977 0.0607 -0.0305
vn -0.0026 -0.8336 -0.5523
vn -0.0112 -0.8183 -0.5747
vn 0.0885 -0.9083 -0.4088
vn 0.9984 0.0521 -0.0222
vn 0.9977 0.0431 -0.0518
vn 0.9978 0.0428 -0.0498
vn 0.9960 0.0437 -0.0782
vn 0.9953 0.0513 -0.0820
vn 0.9969 0.0540 -0.0579
vn 0.0605 0.8657 0.4970
vn 0.0494 0.8645 0.5002
vn 0.0683 0.8670 0.4936
vn 0.0400 0.3080 0.9505
vn 0.0325 0.3101 0.9502
vn 0.1105 0.3280 0.9382
vn -0.9926 -0.0982 0.0710
vn -0.9928 -0.0938 0.0749
vn -0.9317 -0.2080 0.2977
vn -0.9937 -0.0904 0.0660
vn -0.9965 -0.0779 0.0305
vn -0.9962 -0.0797 0.0349
vn 0.0584 -0.9982 0.0137
vn 0.0463 -0.9758 -0.2138
vn 0.0533 -0.9767 -0.2079
vn -0.0653 -0.1435 -0.9875
vn -0.0689 -0.1451 -0.9870
vn -0.0109 -0.4784 -0.8781
vn 0.9936 -0.0881 0.0701
vn 0.9933 -0.0864 0.0772
vn 0.9962 -0.0778 0.0387
vn 0.9912 -0.0921 0.0948
vn 0.9143 -0.2028 0.3506
vn 0.9257 -0.2002 0.3209
vn -0.0203 0.3143 0.9491
vn -0.1035 0.3367 0.9359
vn -0.0925 0.3343 0.9379
vn -0.0825 0.8615 0.5011
vn -0.0959 0.8524 0.5140
vn -0.0946 0.8626 0.4969
vn -0.9960 0.0438 -0.0778
vn -0.9967 0.0545 -0.0607
vn -0.9968 0.0539 -0.0587
vn -0.9982 0.0542 -0.0241
vn -0.9982 0.0567 -0.0185
vn -0.9977 0.0476 -0.0485
vn 0.0611 -0.1419 -0.9880
vn 0.0040 -0.4712 -0.8820
vn 0.0065 -0.4769 -0.8789
vn 0.0682 -0.9972 -0.0304
vn 0.0678 -0.9969 -0.0388
vn 0.0963 -0.9629 -0.2520
vn 0.9575 0.2880 0.0124
vn 0.9801 0.1669 0.1070
vn -0.2101 0.7192 0.6622
vn -0.1920 0.6856 0.7022
vn -0.2039 0.7166 0.6670
vn -0.9648 -0.2609 -0.0341
vn 0.1611 -0.4296 -0.8885
vn -0.9886 0.1496 0.0150
vn -0.9886 0.1497 0.0150
vn -0.0335 -0.2751 -0.9608
vn -0.0699 -0.3587 -0.9308
vn -0.0532 -0.3162 -0.9472
vn 0.9387 -0.3326 0.0907
vn 0.9667 -0.2521 0.0436
vn 0.1281 0.6258 0.7694
vn 0.1158 0.6286 0.7690
vn 0.9802 0.1669 0.1070
vn 0.9805 0.0568 0.1883
vn -0.1485 0.4297 0.8907
vn -0.1401 0.4329 0.8905
vn -0.9736 -0.2179 -0.0679
vn 0.1759 -0.4695 -0.8652
vn 0.2248 -0.7135 -0.6637
vn 0.0270 -0.8016 0.5973
vn -0.9962 0.0303 0.0815
vn -0.1286 -0.6290 -0.7667
vn -0.1370 -0.6260 -0.7677
vn 0.9786 -0.2052 0.0166
vn 0.1005 0.5935 0.7985
vn 0.0321 0.3191 0.9472
vn -0.0803 -0.8697 0.4870
vn 0.9953 0.0511 -0.0821
vn 0.9960 0.0436 -0.0782
vn 0.9943 0.0493 -0.0943
vn 0.0346 0.2844 0.9581
vn 0.0437 0.2823 0.9583
vn 0.0253 0.3960 0.9179
vn -0.9965 -0.0779 0.0304
vn -0.9821 -0.1882 -0.0034
vn -0.9957 -0.0573 0.0727
vn -0.0649 -0.1487 -0.9868
vn -0.0660 -0.0521 -0.9965
vn -0.0752 -0.0490 -0.9960
vn 0.9965 -0.0779 0.0304
vn 0.9962 -0.0797 0.0349
vn 0.9957 -0.0574 0.0726
vn -0.0348 0.2844 0.9581
vn -0.0253 0.3959 0.9179
vn -0.9953 0.0511 -0.0821
vn -0.9946 -0.0139 -0.1033
vn -0.9943 0.0493 -0.0943
vn 0.0649 -0.1487 -0.9868
vn 0.0679 -0.1502 -0.9863
vn 0.0752 -0.0490 -0.9960
vn 0.9946 -0.0139 -0.1033
vn 0.9937 0.0061 -0.1123
vn -0.9344 -0.3524 -0.0509
vn -0.9904 -0.1091 0.0849
vn -0.0016 -0.0485 -0.9988
vn -0.0363 -0.0303 -0.9989
vn 0.0721 -0.9149 0.3971
vn 0.9821 -0.1882 -0.0034
vn 0.9904 -0.1091 0.0849
vn -0.9831 -0.1285 -0.1306
vn -0.9937 0.0061 -0.1123
vn 0.0660 -0.0521 -0.9965
vn 0.0363 -0.0303 -0.9989
vn -0.0721 -0.9149 0.3971
vn -0.9912 0.0428 -0.1255
vn -0.9914 0.0411 -0.1240
vn 0.9914 0.0411 -0.1241
vn 0.9912 0.0428 -0.1255
vn 0.9957 -0.0573 0.0726
vn 0.9840 -0.0174 0.1774
vn -0.9837 -0.0190 0.1789
vn -0.9840 -0.0174 0.1774
vn 0.0726 0.9848 -0.1578
vn -0.0709 0.9850 -0.1571
vn 0.0140 0.3990 0.9168
vn -0.0139 0.3990 0.9168
vn -0.1675 0.9849 0.0440
vn 0.2374 0.9710 0.0296
vn -0.0071 -0.9725 -0.2328
vn 0.0099 -0.9724 -0.2331
vn 0.9536 -0.2966 0.0524
vn 0.9952 0.0977 0.0048
vn 0.9522 -0.2864 0.1064
vn -0.9488 -0.3107 -0.0574
vn -0.9514 -0.3079 -0.0093
vn -0.9957 0.0927 0.0083
vn 0.9401 -0.3390 0.0365
vn -0.9457 -0.3213 -0.0496
vn 0.0580 -0.0396 -0.9975
vn 0.0367 0.0371 0.9986
vn -0.0926 -0.0255 0.9954
vn -0.0002 0.0241 -0.9997
vn -0.9437 0.3225 -0.0729
vn 0.0048 0.1004 -0.9949
vn -0.0000 -0.2917 0.9565
vn 0.0002 0.2728 -0.9621
vn 0.0006 0.2728 -0.9621
vn -0.0003 0.2728 -0.9621
vn 0.0187 -0.0147 -0.9997
vn 0.4902 -0.2705 -0.8286
vn 0.4965 -0.2441 -0.8330
vn 0.5558 -0.1454 -0.8185
vn 0.0370 -0.0618 -0.9974
vn 0.0063 -0.1612 -0.9869
vn 0.0369 -0.0619 -0.9974
vn 0.0054 0.0608 0.9981
vn 0.0807 -0.0937 0.9923
vn -0.0279 0.0806 0.9964
vn -0.0387 -0.0540 0.9978
vn -0.0200 0.0465 0.9987
vn -0.0737 0.0112 0.9972
vn 0.0038 -0.0595 0.9982
vn 0.9949 0.0707 -0.0715
vn 0.9949 0.0722 -0.0707
vn 0.9981 0.0536 -0.0304
vn 0.0880 0.9189 0.3845
vn 0.0880 0.9150 0.3937
vn 0.0887 0.9109 0.4029
vn -0.7980 -0.4886 0.3527
vn -0.8926 -0.4141 0.1780
vn 0.0104 -0.8187 -0.5742
vn 0.0021 -0.8341 -0.5516
vn -0.0892 -0.9085 -0.4082
vn 0.9946 -0.0679 0.0785
vn 0.9594 -0.1846 0.2132
vn 0.9966 -0.0253 0.0781
vn 0.0526 0.9411 0.3340
vn -0.0724 0.9327 0.3533
vn -0.0625 0.9294 0.3637
vn -0.9968 0.0630 -0.0501
vn -0.9931 0.0792 -0.0867
vn -0.9969 0.0648 -0.0448
vn 0.0706 -0.9973 0.0192
vn 0.0348 -0.9844 -0.1727
vn 0.0750 -0.9971 0.0093
vn 0.9984 0.0536 -0.0182
vn 0.9984 0.0511 -0.0239
vn 0.9978 0.0445 -0.0483
vn 0.9967 0.0545 -0.0607
vn 0.9960 0.0438 -0.0778
vn 0.9968 0.0539 -0.0587
vn 0.0963 0.8517 0.5152
vn 0.0836 0.8607 0.5021
vn 0.0965 0.8618 0.4979
vn 0.1035 0.3367 0.9359
vn 0.0202 0.3144 0.9491
vn 0.0925 0.3344 0.9379
vn -0.9181 -0.1890 0.3484
vn -0.9927 -0.0774 0.0924
vn -0.9293 -0.1862 0.3188
vn -0.9933 -0.0864 0.0773
vn -0.9936 -0.0881 0.0701
vn -0.9962 -0.0778 0.0387
vn -0.0697 -0.9968 -0.0395
vn -0.0701 -0.9971 -0.0311
vn -0.0979 -0.9626 -0.2528
vn -0.0043 -0.4712 -0.8820
vn -0.0614 -0.1419 -0.9880
vn -0.0069 -0.4770 -0.8789
vn 0.9965 -0.0780 0.0305
vn 0.9937 -0.0904 0.0660
vn 0.9962 -0.0798 0.0349
vn 0.9912 -0.1038 0.0818
vn 0.9911 -0.1082 0.0779
vn 0.9275 -0.2176 0.3041
vn -0.0325 0.3101 0.9502
vn -0.0400 0.3080 0.9506
vn -0.1105 0.3280 0.9382
vn -0.0493 0.8649 0.4995
vn -0.0605 0.8660 0.4963
vn -0.0685 0.8674 0.4929
vn -0.9953 0.0513 -0.0820
vn -0.9960 0.0437 -0.0782
vn -0.9969 0.0540 -0.0579
vn -0.9976 0.0450 -0.0530
vn -0.9983 0.0540 -0.0235
vn -0.9977 0.0447 -0.0511
vn 0.0689 -0.1452 -0.9870
vn 0.0653 -0.1436 -0.9875
vn 0.0108 -0.4785 -0.8780
vn -0.0450 -0.9758 -0.2138
vn -0.0581 -0.9982 0.0137
vn -0.0532 -0.9767 -0.2079
vn 0.9802 0.1668 0.1071
vn 0.1006 0.5935 0.7985
vn 0.2163 -0.7165 -0.6632
vn 0.0269 -0.8016 0.5973
vn 0.0405 0.3160 0.9479
vn -0.0804 -0.8697 0.4870
vn 0.0253 0.3959 0.9179
vn -0.0685 -0.1503 -0.9863
vn -0.0648 -0.1487 -0.9868
vn -0.0755 -0.0490 -0.9959
vn -0.0437 0.2823 0.9583
vn -0.0346 0.2844 0.9581
vn -0.9960 0.0436 -0.0782
vn 0.0648 -0.1487 -0.9868
vn 0.9831 -0.1285 -0.1306
vn -0.0362 -0.0304 -0.9989
vn 0.9345 -0.3524 -0.0510
vn 0.0016 -0.0485 -0.9988
vn 0.0362 -0.0304 -0.9989
vn -0.9914 0.0410 -0.1240
vn 0.9914 0.0410 -0.1240
vn 0.9837 -0.0191 0.1789
vn 0.0709 0.9850 -0.1571
vn -0.0726 0.9848 -0.1577
vt 0.250000 1.000000
vt 0.000000 0.666700
vt 1.000000 0.666700
vt 0.250000 0.666700
vt 0.328900 0.745600
vt 0.500000 1.000000
vt 0.750000 0.666700
vt 0.421100 0.921100
vt 0.421100 0.745600
vt 0.421100 0.921100
vt 0.328900 0.745600
vt 0.328900 0.921100
vt 1.000000 0.666700
vt 0.000000 0.666700
vt 0.250000 1.000000
vt 0.750000 0.666700
vt 0.500000 1.000000
vt 0.750000 0.333300
vt 0.250000 0.666700
vt 0.250000 0.333300
vt 0.500000 0.333300
vt 1.000000 0.333300
vt 0.000000 0.333300
vt 0.500000 0.333300
vt 0.750000 0.333300
vt 0.500000 0.000000
vt 0.750000 0.593300
vt 0.000000 0.593300
vt 1.000000 0.593300
vt 0.000000 0.333300
vt 1.000000 0.333300
vt 0.250000 0.000000
vt 0.250000 0.333300
vt 0.731100 0.647800
vt 0.731100 0.612200
vt 0.500000 0.666700
vt 0.518900 0.647800
vt 0.500000 0.593300
vt 0.518900 0.612200
vt 0.018900 0.647800
vt 0.231100 0.647800
vt 0.018900 0.612200
vt 0.250000 0.593300
vt 0.231100 0.612200
vt 0.518900 0.647800
vt 0.018900 0.647800
vt 0.231100 0.647800
vt 0.731100 0.612200
vt 0.518900 0.612200
vt 0.731100 0.612200
vt 0.518900 0.612200
vt 0.231100 0.612200
vt 0.731100 0.647800
vt 0.731100 0.647800
vt 0.018900 0.612200
vt 0.018900 0.612200
vt 0.518900 0.647800
vt 0.231100 0.647800
vt 0.231100 0.612200
vt 0.018900 0.647800
vt 0.375000 0.745600
vt 0.375000 0.666700
vt 0.375000 1.000000
vt 0.875000 0.666700
vt 0.375000 0.921100
vt 0.328900 0.921100
vt 0.375000 0.745600
vt 0.375000 0.921100
vt 0.625000 0.666700
vt 0.500000 0.833300
vt 0.625000 0.333300
vt 0.500000 0.666700
vt 0.125000 0.333300
vt 0.125000 0.666700
vt 0.250000 0.833300
vt 0.421100 0.745600
vt 0.875000 0.593300
vt 0.875000 0.333300
vt 0.375000 0.000000
vt 0.375000 0.593300
vt 0.375000 0.333300
vt 0.490400 0.323800
vt 0.490400 0.009600
vt 0.384600 0.323800
vt 0.384600 0.009600
vt 0.365400 0.323800
vt 0.259600 0.323800
vt 0.259600 0.009600
vt 0.365400 0.009600
vt 0.490400 0.323800
vt 0.490400 0.009600
vt 0.490400 0.323800
vt 0.490400 0.009600
vt 0.384600 0.323800
vt 0.384600 0.323800
vt 0.384600 0.009600
vt 0.384600 0.009600
vt 0.365400 0.009600
vt 0.365400 0.323800
vt 0.365400 0.323800
vt 0.259600 0.323800
vt 0.259600 0.323800
vt 0.259600 0.009600
vt 0.259600 0.009600
vt 0.505000 0.661600
vt 0.505000 0.598400
vt 0.745000 0.598400
vt 0.745000 0.661600
vt 0.005000 0.661600
vt 0.245000 0.661600
vt 0.005000 0.598400
vt 0.245000 0.598400
vt 0.531000 0.635700
vt 0.719000 0.635700
vt 0.531000 0.624300
vt 0.719000 0.624300
vt 0.031000 0.635700
vt 0.031000 0.624300
vt 0.219000 0.624300
vt 0.219000 0.635700
vt 0.490400 0.323800
vt 0.384600 0.323800
vt 0.384600 0.009600
vt 0.490400 0.009600
vt 0.365400 0.009600
vt 0.365400 0.323800
vt 0.259600 0.323800
vt 0.259600 0.009600
vt 0.365400 0.009600
vt 0.490400 0.323800
vt 0.384600 0.009600
vt 0.384600 0.323800
vt 0.490400 0.009600
vt 0.365400 0.323800
vt 0.259600 0.009600
vt 0.259600 0.323800
vt 0.365400 0.009600
vt 0.259600 0.326200
vt 0.259600 0.323800
vt 0.490400 0.327400
vt 0.490400 0.326200
vt 0.365400 0.326100
vt 0.384600 0.326100
vt 0.365400 0.327500
vt 0.384500 0.323800
s 0
usemtl Default
f 1/1/1 2/4/1 3/5/1
f 4/6/2 5/8/2 6/9/2
f 6/9/3 5/8/3 7/10/3
f 3/5/4 8/11/4 9/12/4
f 10/13/3 11/16/3 12/18/3
f 13/19/4 14/20/4 15/21/4
f 7/10/5 16/22/5 12/18/5
f 8/11/6 15/21/6 14/20/6
f 17/24/7 18/25/8 19/27/9
f 20/28/10 21/30/11 22/33/12
f 4/7/13 23/34/13 24/35/13
f 4/7/14 25/36/14 26/37/14
f 25/36/13 27/38/15 28/39/13
f 19/27/15 24/35/13 28/39/13
f 1/2/16 29/40/16 30/41/16
f 1/2/17 20/28/18 31/42/17
f 20/28/19 32/43/18 33/44/17
f 2/4/17 30/41/17 33/44/17
f 23/34/20 26/37/20 34/45/21
f 29/40/22 35/46/23 36/47/24
f 24/35/25 37/48/26 38/49/27
f 39/50/28 40/51/29 38/49/27
f 31/42/30 33/44/30 41/52/31
f 42/53/32 37/48/33 24/35/34
f 43/54/35 39/50/36 37/48/33
f 44/55/37 45/56/38 41/52/31
f 28/39/39 38/49/40 34/45/41
f 46/57/42 34/45/41 38/49/40
f 36/47/43 41/52/44 33/44/45
f 47/58/46 48/59/47 41/52/48
f 31/42/49 45/56/50 35/46/51
f 49/60/52 35/46/51 45/56/50
f 43/54/53 42/53/54 34/45/21
f 49/60/55 47/58/56 36/47/24
f 6/9/57 50/61/57 51/62/57
f 3/5/57 2/4/57 51/62/57
f 52/63/57 53/65/57 5/8/57
f 52/63/57 1/1/57 54/66/57
f 55/67/58 50/61/58 6/9/58
f 8/11/58 3/5/58 50/61/58
f 53/65/59 56/68/59 7/10/59
f 54/66/59 9/12/59 56/68/59
f 57/69/60 58/71/60 12/18/60
f 59/72/60 15/21/60 58/71/60
f 60/73/61 61/74/61 10/14/61
f 14/20/61 13/19/61 61/74/61
f 61/75/57 57/70/57 11/17/57
f 13/19/57 59/72/57 57/70/57
f 58/71/62 55/67/62 62/76/62
f 58/71/62 15/21/62 8/11/62
f 7/10/62 56/68/62 60/73/62
f 9/12/62 14/20/62 60/73/62
f 63/77/63 52/64/63 4/7/63
f 63/77/64 20/29/64 1/3/64
f 64/78/65 63/77/66 19/27/67
f 64/78/68 21/31/69 20/29/70
f 25/36/71 51/62/71 65/80/72
f 2/4/71 32/43/73 65/80/72
f 27/38/74 65/80/75 66/81/76
f 32/43/77 22/33/78 66/81/79
f 17/24/80 67/82/81 68/83/82
f 17/24/83 66/81/84 69/84/85
f 64/79/86 70/85/87 69/84/88
f 18/26/89 68/83/90 70/85/91
f 64/79/92 66/81/92 71/86/93
f 22/33/94 72/87/95 71/86/96
f 22/33/97 21/32/98 73/88/99
f 21/32/100 64/79/101 74/89/102
f 67/82/103 75/90/104 76/91/105
f 77/92/106 78/93/107 76/91/108
f 79/94/109 75/90/110 67/82/111
f 80/95/112 77/92/113 75/90/114
f 81/96/115 79/94/116 69/84/117
f 81/96/118 82/97/119 80/95/120
f 68/83/121 76/91/122 81/96/123
f 78/93/124 82/97/125 81/96/126
f 83/98/127 84/99/128 85/100/129
f 83/98/130 74/89/131 71/86/132
f 85/100/133 84/99/134 86/101/135
f 84/99/136 71/86/137 72/87/138
f 87/102/139 86/101/140 88/103/141
f 72/87/142 73/88/143 88/103/144
f 89/104/145 88/103/146 83/98/147
f 73/88/148 74/89/149 83/98/150
f 43/54/53 46/57/151 90/105/152
f 40/51/153 91/106/154 90/105/155
f 39/50/28 92/107/156 91/106/156
f 39/50/36 43/54/35 93/108/157
f 49/60/55 94/109/158 95/110/159
f 44/55/160 96/111/161 94/109/162
f 44/55/37 48/59/163 97/112/164
f 48/59/47 47/58/165 95/110/166
f 90/105/167 98/113/168 99/114/168
f 91/106/154 100/115/169 98/113/170
f 91/106/156 92/107/156 101/116/171
f 92/107/172 93/108/157 99/114/173
f 100/115/174 101/116/174 99/114/174
f 95/110/159 94/109/158 102/117/175
f 96/111/161 103/118/176 102/117/177
f 97/112/164 104/119/178 103/118/178
f 97/112/179 95/110/166 105/120/180
f 102/117/181 103/118/181 104/119/181
f 78/93/182 77/92/183 106/121/184
f 77/92/185 80/95/186 107/122/187
f 82/97/188 108/123/189 107/122/190
f 78/93/191 109/124/192 108/123/193
f 110/125/194 85/100/195 111/126/196
f 87/102/197 112/127/198 111/126/198
f 89/104/199 113/128/200 112/127/201
f 89/104/202 110/125/203 114/129/204
f 109/124/205 106/121/184 115/130/206
f 108/123/189 116/131/207 117/132/208
f 109/124/192 118/133/209 116/131/210
f 115/130/211 117/132/211 116/131/211
f 114/129/212 111/126/196 119/134/213
f 113/128/200 120/135/214 121/136/215
f 113/128/216 114/129/204 122/137/217
f 121/136/218 120/135/218 122/137/218
f 121/136/215 123/138/219 124/139/220
f 125/140/221 126/141/222 115/130/206
f 121/136/218 119/134/218 127/142/218
f 115/130/211 126/141/211 128/143/211
f 119/134/213 111/126/223 129/144/224
f 117/132/208 128/143/225 130/145/226
f 112/127/227 124/139/227 129/144/227
f 106/121/228 107/122/228 130/145/228
f 128/143/229 126/141/229 125/140/229
f 124/139/230 123/138/230 127/142/230
f 54/66/231 1/1/231 3/5/231
f 25/36/232 4/6/232 6/9/232
f 62/76/3 6/9/3 7/10/3
f 54/66/4 3/5/4 9/12/4
f 16/22/3 10/13/3 12/18/3
f 59/72/4 13/19/4 15/21/4
f 62/76/233 7/10/233 12/18/233
f 9/12/234 8/11/234 14/20/234
f 27/38/235 17/24/236 19/27/237
f 32/43/238 20/28/239 22/33/240
f 19/27/15 4/7/13 24/35/13
f 23/34/241 4/7/241 26/37/241
f 26/37/13 25/36/13 28/39/13
f 27/38/15 19/27/15 28/39/13
f 2/4/242 1/2/242 30/41/242
f 29/40/17 1/2/17 31/42/17
f 31/42/17 20/28/18 33/44/17
f 32/43/18 2/4/17 33/44/17
f 42/53/54 23/34/20 34/45/21
f 30/41/22 29/40/22 36/47/24
f 28/39/25 24/35/25 38/49/27
f 37/48/26 39/50/28 38/49/27
f 45/56/38 31/42/30 41/52/31
f 23/34/243 42/53/32 24/35/34
f 42/53/32 43/54/35 37/48/33
f 48/59/163 44/55/37 41/52/31
f 26/37/244 28/39/39 34/45/41
f 40/51/153 46/57/42 38/49/40
f 30/41/245 36/47/43 33/44/45
f 36/47/43 47/58/46 41/52/48
f 29/40/246 31/42/49 35/46/51
f 44/55/160 49/60/52 45/56/50
f 46/57/151 43/54/53 34/45/21
f 35/46/247 49/60/55 36/47/24
f 25/36/57 6/9/57 51/62/57
f 50/61/57 3/5/57 51/62/57
f 4/6/57 52/63/57 5/8/57
f 53/65/57 52/63/57 54/66/57
f 62/76/58 55/67/58 6/9/58
f 55/67/58 8/11/58 50/61/58
f 5/8/248 53/65/248 7/10/248
f 53/65/248 54/66/248 56/68/248
f 11/16/249 57/69/249 12/18/249
f 57/69/249 59/72/249 58/71/249
f 16/23/250 60/73/250 10/14/251
f 60/73/250 14/20/250 61/74/252
f 10/15/57 61/75/57 11/17/57
f 61/75/57 13/19/57 57/70/57
f 12/18/62 58/71/62 62/76/62
f 55/67/62 58/71/62 8/11/62
f 16/23/62 7/10/62 60/73/62
f 56/68/62 9/12/62 60/73/62
f 19/27/253 63/77/253 4/7/253
f 52/64/63 63/77/63 1/3/63
f 18/25/254 64/78/255 19/27/256
f 63/77/257 64/78/258 20/29/259
f 27/38/260 25/36/71 65/80/72
f 51/62/71 2/4/71 65/80/72
f 17/24/261 27/38/262 66/81/263
f 65/80/264 32/43/265 66/81/266
f 18/26/267 17/24/268 68/83/269
f 67/82/270 17/24/271 69/84/272
f 66/81/273 64/79/273 69/84/274
f 64/79/275 18/26/276 70/85/277
f 74/89/278 64/79/279 71/86/280
f 66/81/281 22/33/282 71/86/283
f 72/87/284 22/33/285 73/88/286
f 73/88/287 21/32/288 74/89/289
f 68/83/290 67/82/291 76/91/292
f 75/90/293 77/92/294 76/91/295
f 69/84/296 79/94/297 67/82/298
f 79/94/299 80/95/300 75/90/301
f 70/85/302 81/96/303 69/84/304
f 79/94/305 81/96/306 80/95/307
f 70/85/308 68/83/309 81/96/310
f 76/91/311 78/93/312 81/96/313
f 110/125/314 83/98/315 85/100/316
f 84/99/317 83/98/318 71/86/319
f 87/102/320 85/100/321 86/101/322
f 86/101/323 84/99/324 72/87/325
f 89/104/326 87/102/327 88/103/328
f 86/101/329 72/87/330 88/103/331
f 110/125/332 89/104/333 83/98/334
f 88/103/335 73/88/336 83/98/337
f 93/108/338 43/54/53 90/105/167
f 46/57/42 40/51/153 90/105/155
f 40/51/29 39/50/28 91/106/156
f 92/107/172 39/50/36 93/108/157
f 47/58/56 49/60/55 95/110/159
f 49/60/52 44/55/160 94/109/162
f 96/111/164 44/55/37 97/112/164
f 97/112/339 48/59/47 95/110/166
f 93/108/338 90/105/152 99/114/168
f 90/105/155 91/106/154 98/113/170
f 100/115/171 91/106/156 101/116/171
f 101/116/340 92/107/172 99/114/173
f 98/113/341 100/115/341 99/114/341
f 105/120/175 95/110/159 102/117/175
f 94/109/162 96/111/161 102/117/177
f 96/111/164 97/112/164 103/118/178
f 104/119/342 97/112/179 105/120/180
f 105/120/343 102/117/343 104/119/343
f 109/124/205 78/93/182 106/121/184
f 106/121/344 77/92/185 107/122/344
f 80/95/120 82/97/188 107/122/190
f 82/97/345 78/93/346 108/123/347
f 114/129/212 110/125/194 111/126/196
f 85/100/348 87/102/349 111/126/198
f 87/102/350 89/104/199 112/127/201
f 113/128/216 89/104/351 114/129/204
f 118/133/352 109/124/205 115/130/206
f 107/122/190 108/123/189 117/132/208
f 108/123/193 109/124/192 116/131/353
f 118/133/211 115/130/211 116/131/211
f 122/137/354 114/129/212 119/134/213
f 112/127/201 113/128/200 121/136/215
f 120/135/355 113/128/216 122/137/356
f 119/134/218 121/136/218 122/137/218
f 112/127/201 121/136/215 124/139/357
f 106/121/184 125/140/358 115/130/206
f 123/138/218 121/136/218 127/142/218
f 117/132/211 115/130/211 128/143/211
f 127/142/359 119/134/213 129/144/224
f 107/122/190 117/132/208 130/145/226
f 111/126/360 112/127/360 129/144/360
f 125/140/361 106/121/361 130/145/361
f 130/145/229 128/143/229 125/140/229
f 129/144/230 124/139/230 127/142/230
