mtllib materials.mtl
v 0.1265443 -0.2460618 -0.007469058
v 0.1265441 -0.2460619 0.01253104
v 0.1265443 0.1739383 0.01253104
v 0.1265444 0.1739383 -0.007468939
v -0.1034558 -0.2460617 -0.007468939
v -0.1034557 0.1739384 -0.007468939
v -0.1034557 0.1739383 0.01253128
v -0.1034559 -0.2460617 0.01253116
v -0.06062075 -0.05132782 0.03398561
v -0.06049514 -0.02132809 0.03397489
v -0.0596489 -0.02135336 -0.02601922
v -0.05977455 -0.05135304 -0.02600837
v -0.09061748 -0.05120236 0.03356254
v -0.08977127 -0.05122757 -0.02643156
v -0.08964562 -0.02122784 -0.02644229
v -0.09049186 -0.02120268 0.03355169
v 0.1515442 -0.2510616 -0.01746905
v 0.1515442 -0.2510616 0.01253092
v 0.1515444 0.1789383 0.01253092
v 0.1515444 0.1789383 -0.01746905
v 0.1215442 -0.2510616 -0.01746905
v 0.1215444 0.1789383 -0.01746905
v 0.1215444 0.1789383 0.01253092
v 0.1215442 -0.2510616 0.01253092
v -0.09845576 -0.2510616 -0.01746905
v -0.09845576 -0.2510616 0.01253092
v -0.09845564 0.1789383 0.01253092
v -0.09845564 0.1789383 -0.01746905
v -0.1284557 -0.2510616 -0.01746905
v -0.1284556 0.1789383 -0.01746905
v -0.1284556 0.1789383 0.01253092
v -0.1284557 -0.2510616 0.01253092
v 0.1515443 0.2089384 -0.01746917
v 0.1515443 0.2089384 0.0125308
v -0.1284558 0.2089384 0.01253092
v -0.1284558 0.2089384 -0.01746917
v 0.1515443 0.1789384 -0.01746917
v -0.1284558 0.1789384 -0.01746917
v -0.1284558 0.1789384 0.01253092
v 0.1515443 0.1789384 0.0125308
v 0.07709122 -0.1684813 -0.01977444
v 0.07762942 -0.1689221 -0.01157105
v 0.07762952 0.1210779 -0.01157081
v 0.07709125 0.1215187 -0.01977432
v -0.05290884 -0.1684813 -0.01977444
v -0.05290881 0.1215187 -0.01977432
v -0.0523704 0.1210779 -0.01157069
v -0.05237052 -0.1689221 -0.01157093
v -0.04813519 -0.1705529 0.02087879
v -0.04867339 -0.1709937 0.0126754
v -0.04867354 0.1190063 0.01267517
v -0.04813525 0.1194471 0.02087867
v 0.08186486 -0.170553 0.02087879
v 0.08186477 0.1194471 0.02087867
v 0.08132637 0.1190063 0.01267505
v 0.08132657 -0.1709937 0.01267529
vn 1 -3.501533E-07 9.12761E-14
vn -1 3.501533E-07 -9.12761E-14
vn -3.501533E-07 -1 -3.688285E-09
vn 3.501533E-07 1 3.688285E-09
vn 9.256756E-14 3.688285E-09 -1
vn -9.256756E-14 -3.688285E-09 1
vn 0.9998918 -0.004182403 0.01410532
vn -0.9998918 0.004182403 -0.01410532
vn -0.01410369 0.0004198026 0.9999005
vn 0.01410369 -0.0004198026 -0.9999005
vn -0.004187907 -0.9999912 0.0003607699
vn 0.004187907 0.9999912 -0.0003607699
vn 1 -3.501533E-07 -3.166726E-14
vn -1 3.501533E-07 3.166726E-14
vn -3.501533E-07 -1 -3.688291E-09
vn 3.501533E-07 1 3.688291E-09
vn -3.037579E-14 3.688291E-09 -1
vn 3.037579E-14 -3.688291E-09 1
vn 1 -3.501533E-07 -3.166726E-14
vn -1 3.501533E-07 3.166726E-14
vn -3.501533E-07 -1 -3.688291E-09
vn 3.501533E-07 1 3.688291E-09
vn -3.037579E-14 3.688291E-09 -1
vn 3.037579E-14 -3.688291E-09 1
vn 1.788139E-07 1 -2.344503E-07
vn -1.788139E-07 -1 2.344503E-07
vn 1 -1.788139E-07 -1.788139E-07
vn -1 1.788139E-07 1.788139E-07
vn -1.78814E-07 -2.344502E-07 -1
vn 1.78814E-07 2.344502E-07 1
vn 0.9978547 -3.085642E-07 -0.06546726
vn -0.9978532 1.370781E-07 0.06548952
vn 4.543748E-07 -0.9985601 -0.05364548
vn -5.699395E-08 0.9985594 0.05365728
vn 1.685875E-07 1.785339E-07 -1
vn -1.685875E-07 -1.785339E-07 1
vn -0.9978547 -4.830346E-07 0.0654671
vn 0.9978532 3.115483E-07 -0.06548935
vn -2.88825E-07 -0.9985601 0.05364548
vn -1.085537E-07 0.9985594 -0.05365728
vn -3.37175E-07 1.785338E-07 1
vn 3.37175E-07 -1.785338E-07 -1
usemtl mat19
f 4//1 3//1 2//1 1//1
f 8//2 7//2 6//2 5//2
f 2//3 8//3 5//3 1//3
f 6//4 7//4 3//4 4//4
f 5//5 6//5 4//5 1//5
f 3//6 7//6 8//6 2//6
usemtl mat18
f 12//7 11//7 10//7 9//7
f 16//8 15//8 14//8 13//8
f 10//9 16//9 13//9 9//9
f 14//10 15//10 11//10 12//10
f 13//11 14//11 12//11 9//11
f 11//12 15//12 16//12 10//12
usemtl mat15
f 20//13 19//13 18//13 17//13
f 24//14 23//14 22//14 21//14
f 18//15 24//15 21//15 17//15
f 22//16 23//16 19//16 20//16
f 21//17 22//17 20//17 17//17
f 19//18 23//18 24//18 18//18
f 28//19 27//19 26//19 25//19
f 32//20 31//20 30//20 29//20
f 26//21 32//21 29//21 25//21
f 30//22 31//22 27//22 28//22
f 29//23 30//23 28//23 25//23
f 27//24 31//24 32//24 26//24
f 36//25 35//25 34//25 33//25
f 40//26 39//26 38//26 37//26
f 34//27 40//27 37//27 33//27
f 38//28 39//28 35//28 36//28
f 37//29 38//29 36//29 33//29
f 35//30 39//30 40//30 34//30
usemtl mat25
f 44//31 43//31 42//31 41//31
f 48//32 47//32 46//32 45//32
f 42//33 48//33 45//33 41//33
f 46//34 47//34 43//34 44//34
f 45//35 46//35 44//35 41//35
f 52//37 51//37 50//37 49//37
f 56//38 55//38 54//38 53//38
f 50//39 56//39 53//39 49//39
f 54//40 55//40 51//40 52//40
f 53//41 54//41 52//41 49//41
usemtl mat3
f 43//36 47//36 48//36 42//36
f 51//42 55//42 56//42 50//42
